<svg xmlns="http://www.w3.org/2000/svg" viewBox="0 0 400 300">
  <defs>
    <linearGradient id="moneyGrad" x1="0" y1="0" x2="0" y2="1">
      <stop offset="0%" stop-color="#4ade80"/>
      <stop offset="100%" stop-color="#16a34a"/>
    </linearGradient>
  </defs>

  <rect width="400" height="300" fill="#0a0a0a"/>

  <!-- Grid dots -->
  <g opacity="0.08" fill="#4ade80">
    <circle cx="20" cy="20" r="1"/><circle cx="60" cy="20" r="1"/><circle cx="100" cy="20" r="1"/><circle cx="140" cy="20" r="1"/><circle cx="180" cy="20" r="1"/><circle cx="220" cy="20" r="1"/><circle cx="260" cy="20" r="1"/><circle cx="300" cy="20" r="1"/><circle cx="340" cy="20" r="1"/><circle cx="380" cy="20" r="1"/>
    <circle cx="20" cy="60" r="1"/><circle cx="60" cy="60" r="1"/><circle cx="100" cy="60" r="1"/><circle cx="140" cy="60" r="1"/><circle cx="180" cy="60" r="1"/><circle cx="220" cy="60" r="1"/><circle cx="260" cy="60" r="1"/><circle cx="300" cy="60" r="1"/><circle cx="340" cy="60" r="1"/><circle cx="380" cy="60" r="1"/>
    <circle cx="20" cy="100" r="1"/><circle cx="60" cy="100" r="1"/><circle cx="100" cy="100" r="1"/><circle cx="140" cy="100" r="1"/><circle cx="180" cy="100" r="1"/><circle cx="220" cy="100" r="1"/><circle cx="260" cy="100" r="1"/><circle cx="300" cy="100" r="1"/><circle cx="340" cy="100" r="1"/><circle cx="380" cy="100" r="1"/>
    <circle cx="20" cy="140" r="1"/><circle cx="60" cy="140" r="1"/><circle cx="100" cy="140" r="1"/><circle cx="140" cy="140" r="1"/><circle cx="180" cy="140" r="1"/><circle cx="220" cy="140" r="1"/><circle cx="260" cy="140" r="1"/><circle cx="300" cy="140" r="1"/><circle cx="340" cy="140" r="1"/><circle cx="380" cy="140" r="1"/>
    <circle cx="20" cy="180" r="1"/><circle cx="60" cy="180" r="1"/><circle cx="100" cy="180" r="1"/><circle cx="140" cy="180" r="1"/><circle cx="180" cy="180" r="1"/><circle cx="220" cy="180" r="1"/><circle cx="260" cy="180" r="1"/><circle cx="300" cy="180" r="1"/><circle cx="340" cy="180" r="1"/><circle cx="380" cy="180" r="1"/>
    <circle cx="20" cy="220" r="1"/><circle cx="60" cy="220" r="1"/><circle cx="100" cy="220" r="1"/><circle cx="140" cy="220" r="1"/><circle cx="180" cy="220" r="1"/><circle cx="220" cy="220" r="1"/><circle cx="260" cy="220" r="1"/><circle cx="300" cy="220" r="1"/><circle cx="340" cy="220" r="1"/><circle cx="380" cy="220" r="1"/>
    <circle cx="20" cy="260" r="1"/><circle cx="60" cy="260" r="1"/><circle cx="100" cy="260" r="1"/><circle cx="140" cy="260" r="1"/><circle cx="180" cy="260" r="1"/><circle cx="220" cy="260" r="1"/><circle cx="260" cy="260" r="1"/><circle cx="300" cy="260" r="1"/><circle cx="340" cy="260" r="1"/><circle cx="380" cy="260" r="1"/>
  </g>

  <!-- Glow -->
  <circle cx="200" cy="130" r="100" fill="rgba(74,222,128,0.06)"/>

  <!-- Coin stack -->
  <g opacity="0.6">
    <ellipse cx="190" cy="200" rx="50" ry="12" fill="none" stroke="#4ade80" stroke-width="1.5"/>
    <ellipse cx="190" cy="185" rx="50" ry="12" fill="#0a0a0a" stroke="#4ade80" stroke-width="1.5"/>
    <ellipse cx="190" cy="185" rx="42" ry="9" fill="none" stroke="#4ade80" stroke-width="0.5" opacity="0.5"/>
  </g>
  <g opacity="0.75">
    <ellipse cx="210" cy="170" rx="50" ry="12" fill="#0a0a0a" stroke="#4ade80" stroke-width="1.5"/>
    <ellipse cx="210" cy="170" rx="42" ry="9" fill="none" stroke="#4ade80" stroke-width="0.5" opacity="0.5"/>
    <text x="210" y="174" font-family="sans-serif" font-size="14" font-weight="700" fill="#4ade80" text-anchor="middle" opacity="0.5">$</text>
  </g>
  <g opacity="0.9">
    <ellipse cx="200" cy="155" rx="50" ry="12" fill="#0a0a0a" stroke="#4ade80" stroke-width="2"/>
    <ellipse cx="200" cy="155" rx="42" ry="9" fill="none" stroke="#4ade80" stroke-width="0.8" opacity="0.5"/>
    <text x="200" y="159" font-family="sans-serif" font-size="16" font-weight="700" fill="#4ade80" text-anchor="middle" opacity="0.7">$</text>
  </g>

  <!-- Down arrow (savings) -->
  <g opacity="0.5">
    <line x1="310" y1="100" x2="310" y2="190" stroke="#4ade80" stroke-width="2.5" stroke-linecap="round"/>
    <polyline points="300,175 310,195 320,175" fill="none" stroke="#4ade80" stroke-width="2.5" stroke-linecap="round" stroke-linejoin="round"/>
  </g>

  <!-- Savings text -->
  <text x="310" y="220" font-family="sans-serif" font-size="14" font-weight="600" fill="#4ade80" text-anchor="middle" opacity="0.6">-$200</text>
  <text x="310" y="237" font-family="sans-serif" font-size="9" fill="#888" text-anchor="middle">per year</text>

  <!-- Floating coins -->
  <circle cx="120" cy="100" r="12" fill="none" stroke="#4ade80" stroke-width="1" opacity="0.2"/>
  <text x="120" y="104" font-family="sans-serif" font-size="10" fill="#4ade80" text-anchor="middle" opacity="0.15">$</text>
  <circle cx="300" cy="250" r="10" fill="none" stroke="#4ade80" stroke-width="1" opacity="0.15"/>
  <text x="300" y="254" font-family="sans-serif" font-size="8" fill="#4ade80" text-anchor="middle" opacity="0.1">$</text>
</svg>
