<svg xmlns="http://www.w3.org/2000/svg" viewBox="0 0 800 480">
  <defs>
    <linearGradient id="heroGrad" x1="0" y1="0" x2="1" y2="1">
      <stop offset="0%" stop-color="#4ade80" stop-opacity="0.15"/>
      <stop offset="100%" stop-color="#22d3ee" stop-opacity="0.05"/>
    </linearGradient>
    <linearGradient id="leafGrad" x1="0" y1="0" x2="0" y2="1">
      <stop offset="0%" stop-color="#4ade80"/>
      <stop offset="100%" stop-color="#16a34a"/>
    </linearGradient>
    <filter id="glow"><feGaussianBlur stdDeviation="20" result="g"/><feMerge><feMergeNode in="g"/><feMergeNode in="SourceGraphic"/></feMerge></filter>
  </defs>

  <!-- Background -->
  <rect width="800" height="480" fill="#0a0a0a"/>

  <!-- Grid dots -->
  <g opacity="0.12">
    <g fill="#4ade80"><circle cx="40" cy="40" r="1.2"/><circle cx="80" cy="40" r="1.2"/><circle cx="120" cy="40" r="1.2"/><circle cx="160" cy="40" r="1.2"/><circle cx="200" cy="40" r="1.2"/><circle cx="240" cy="40" r="1.2"/><circle cx="280" cy="40" r="1.2"/><circle cx="320" cy="40" r="1.2"/><circle cx="360" cy="40" r="1.2"/><circle cx="400" cy="40" r="1.2"/><circle cx="440" cy="40" r="1.2"/><circle cx="480" cy="40" r="1.2"/><circle cx="520" cy="40" r="1.2"/><circle cx="560" cy="40" r="1.2"/><circle cx="600" cy="40" r="1.2"/><circle cx="640" cy="40" r="1.2"/><circle cx="680" cy="40" r="1.2"/><circle cx="720" cy="40" r="1.2"/><circle cx="760" cy="40" r="1.2"/></g>
    <g fill="#4ade80"><circle cx="40" cy="80" r="1.2"/><circle cx="80" cy="80" r="1.2"/><circle cx="120" cy="80" r="1.2"/><circle cx="160" cy="80" r="1.2"/><circle cx="200" cy="80" r="1.2"/><circle cx="240" cy="80" r="1.2"/><circle cx="280" cy="80" r="1.2"/><circle cx="320" cy="80" r="1.2"/><circle cx="360" cy="80" r="1.2"/><circle cx="400" cy="80" r="1.2"/><circle cx="440" cy="80" r="1.2"/><circle cx="480" cy="80" r="1.2"/><circle cx="520" cy="80" r="1.2"/><circle cx="560" cy="80" r="1.2"/><circle cx="600" cy="80" r="1.2"/><circle cx="640" cy="80" r="1.2"/><circle cx="680" cy="80" r="1.2"/><circle cx="720" cy="80" r="1.2"/><circle cx="760" cy="80" r="1.2"/></g>
    <g fill="#4ade80"><circle cx="40" cy="120" r="1.2"/><circle cx="80" cy="120" r="1.2"/><circle cx="120" cy="120" r="1.2"/><circle cx="160" cy="120" r="1.2"/><circle cx="200" cy="120" r="1.2"/><circle cx="240" cy="120" r="1.2"/><circle cx="280" cy="120" r="1.2"/><circle cx="320" cy="120" r="1.2"/><circle cx="360" cy="120" r="1.2"/><circle cx="400" cy="120" r="1.2"/><circle cx="440" cy="120" r="1.2"/><circle cx="480" cy="120" r="1.2"/><circle cx="520" cy="120" r="1.2"/><circle cx="560" cy="120" r="1.2"/><circle cx="600" cy="120" r="1.2"/><circle cx="640" cy="120" r="1.2"/><circle cx="680" cy="120" r="1.2"/><circle cx="720" cy="120" r="1.2"/><circle cx="760" cy="120" r="1.2"/></g>
    <g fill="#4ade80"><circle cx="40" cy="160" r="1.2"/><circle cx="80" cy="160" r="1.2"/><circle cx="120" cy="160" r="1.2"/><circle cx="160" cy="160" r="1.2"/><circle cx="200" cy="160" r="1.2"/><circle cx="240" cy="160" r="1.2"/><circle cx="280" cy="160" r="1.2"/><circle cx="320" cy="160" r="1.2"/><circle cx="360" cy="160" r="1.2"/><circle cx="400" cy="160" r="1.2"/><circle cx="440" cy="160" r="1.2"/><circle cx="480" cy="160" r="1.2"/><circle cx="520" cy="160" r="1.2"/><circle cx="560" cy="160" r="1.2"/><circle cx="600" cy="160" r="1.2"/><circle cx="640" cy="160" r="1.2"/><circle cx="680" cy="160" r="1.2"/><circle cx="720" cy="160" r="1.2"/><circle cx="760" cy="160" r="1.2"/></g>
    <g fill="#4ade80"><circle cx="40" cy="200" r="1.2"/><circle cx="80" cy="200" r="1.2"/><circle cx="120" cy="200" r="1.2"/><circle cx="160" cy="200" r="1.2"/><circle cx="200" cy="200" r="1.2"/><circle cx="240" cy="200" r="1.2"/><circle cx="280" cy="200" r="1.2"/><circle cx="320" cy="200" r="1.2"/><circle cx="360" cy="200" r="1.2"/><circle cx="400" cy="200" r="1.2"/><circle cx="440" cy="200" r="1.2"/><circle cx="480" cy="200" r="1.2"/><circle cx="520" cy="200" r="1.2"/><circle cx="560" cy="200" r="1.2"/><circle cx="600" cy="200" r="1.2"/><circle cx="640" cy="200" r="1.2"/><circle cx="680" cy="200" r="1.2"/><circle cx="720" cy="200" r="1.2"/><circle cx="760" cy="200" r="1.2"/></g>
    <g fill="#4ade80"><circle cx="40" cy="240" r="1.2"/><circle cx="80" cy="240" r="1.2"/><circle cx="120" cy="240" r="1.2"/><circle cx="160" cy="240" r="1.2"/><circle cx="200" cy="240" r="1.2"/><circle cx="240" cy="240" r="1.2"/><circle cx="280" cy="240" r="1.2"/><circle cx="320" cy="240" r="1.2"/><circle cx="360" cy="240" r="1.2"/><circle cx="400" cy="240" r="1.2"/><circle cx="440" cy="240" r="1.2"/><circle cx="480" cy="240" r="1.2"/><circle cx="520" cy="240" r="1.2"/><circle cx="560" cy="240" r="1.2"/><circle cx="600" cy="240" r="1.2"/><circle cx="640" cy="240" r="1.2"/><circle cx="680" cy="240" r="1.2"/><circle cx="720" cy="240" r="1.2"/><circle cx="760" cy="240" r="1.2"/></g>
    <g fill="#4ade80"><circle cx="40" cy="280" r="1.2"/><circle cx="80" cy="280" r="1.2"/><circle cx="120" cy="280" r="1.2"/><circle cx="160" cy="280" r="1.2"/><circle cx="200" cy="280" r="1.2"/><circle cx="240" cy="280" r="1.2"/><circle cx="280" cy="280" r="1.2"/><circle cx="320" cy="280" r="1.2"/><circle cx="360" cy="280" r="1.2"/><circle cx="400" cy="280" r="1.2"/><circle cx="440" cy="280" r="1.2"/><circle cx="480" cy="280" r="1.2"/><circle cx="520" cy="280" r="1.2"/><circle cx="560" cy="280" r="1.2"/><circle cx="600" cy="280" r="1.2"/><circle cx="640" cy="280" r="1.2"/><circle cx="680" cy="280" r="1.2"/><circle cx="720" cy="280" r="1.2"/><circle cx="760" cy="280" r="1.2"/></g>
    <g fill="#4ade80"><circle cx="40" cy="320" r="1.2"/><circle cx="80" cy="320" r="1.2"/><circle cx="120" cy="320" r="1.2"/><circle cx="160" cy="320" r="1.2"/><circle cx="200" cy="320" r="1.2"/><circle cx="240" cy="320" r="1.2"/><circle cx="280" cy="320" r="1.2"/><circle cx="320" cy="320" r="1.2"/><circle cx="360" cy="320" r="1.2"/><circle cx="400" cy="320" r="1.2"/><circle cx="440" cy="320" r="1.2"/><circle cx="480" cy="320" r="1.2"/><circle cx="520" cy="320" r="1.2"/><circle cx="560" cy="320" r="1.2"/><circle cx="600" cy="320" r="1.2"/><circle cx="640" cy="320" r="1.2"/><circle cx="680" cy="320" r="1.2"/><circle cx="720" cy="320" r="1.2"/><circle cx="760" cy="320" r="1.2"/></g>
    <g fill="#4ade80"><circle cx="40" cy="360" r="1.2"/><circle cx="80" cy="360" r="1.2"/><circle cx="120" cy="360" r="1.2"/><circle cx="160" cy="360" r="1.2"/><circle cx="200" cy="360" r="1.2"/><circle cx="240" cy="360" r="1.2"/><circle cx="280" cy="360" r="1.2"/><circle cx="320" cy="360" r="1.2"/><circle cx="360" cy="360" r="1.2"/><circle cx="400" cy="360" r="1.2"/><circle cx="440" cy="360" r="1.2"/><circle cx="480" cy="360" r="1.2"/><circle cx="520" cy="360" r="1.2"/><circle cx="560" cy="360" r="1.2"/><circle cx="600" cy="360" r="1.2"/><circle cx="640" cy="360" r="1.2"/><circle cx="680" cy="360" r="1.2"/><circle cx="720" cy="360" r="1.2"/><circle cx="760" cy="360" r="1.2"/></g>
    <g fill="#4ade80"><circle cx="40" cy="400" r="1.2"/><circle cx="80" cy="400" r="1.2"/><circle cx="120" cy="400" r="1.2"/><circle cx="160" cy="400" r="1.2"/><circle cx="200" cy="400" r="1.2"/><circle cx="240" cy="400" r="1.2"/><circle cx="280" cy="400" r="1.2"/><circle cx="320" cy="400" r="1.2"/><circle cx="360" cy="400" r="1.2"/><circle cx="400" cy="400" r="1.2"/><circle cx="440" cy="400" r="1.2"/><circle cx="480" cy="400" r="1.2"/><circle cx="520" cy="400" r="1.2"/><circle cx="560" cy="400" r="1.2"/><circle cx="600" cy="400" r="1.2"/><circle cx="640" cy="400" r="1.2"/><circle cx="680" cy="400" r="1.2"/><circle cx="720" cy="400" r="1.2"/><circle cx="760" cy="400" r="1.2"/></g>
    <g fill="#4ade80"><circle cx="40" cy="440" r="1.2"/><circle cx="80" cy="440" r="1.2"/><circle cx="120" cy="440" r="1.2"/><circle cx="160" cy="440" r="1.2"/><circle cx="200" cy="440" r="1.2"/><circle cx="240" cy="440" r="1.2"/><circle cx="280" cy="440" r="1.2"/><circle cx="320" cy="440" r="1.2"/><circle cx="360" cy="440" r="1.2"/><circle cx="400" cy="440" r="1.2"/><circle cx="440" cy="440" r="1.2"/><circle cx="480" cy="440" r="1.2"/><circle cx="520" cy="440" r="1.2"/><circle cx="560" cy="440" r="1.2"/><circle cx="600" cy="440" r="1.2"/><circle cx="640" cy="440" r="1.2"/><circle cx="680" cy="440" r="1.2"/><circle cx="720" cy="440" r="1.2"/><circle cx="760" cy="440" r="1.2"/></g>
  </g>

  <!-- Large glow circle behind plant -->
  <circle cx="280" cy="280" r="160" fill="url(#heroGrad)" filter="url(#glow)"/>

  <!-- Pot -->
  <path d="M220 340 L235 440 L325 440 L340 340 Z" fill="#141414" stroke="#4ade80" stroke-width="1.5" opacity="0.7"/>
  <rect x="212" y="332" width="136" height="14" rx="6" fill="#141414" stroke="#4ade80" stroke-width="1" opacity="0.6"/>
  <!-- Soil -->
  <ellipse cx="280" cy="340" rx="56" ry="8" fill="#1a2a1a" opacity="0.6"/>

  <!-- Main stem -->
  <path d="M280 335 C280 280 260 240 270 200 C275 180 280 170 280 160" fill="none" stroke="#4ade80" stroke-width="3" stroke-linecap="round" opacity="0.8"/>
  <!-- Branch left -->
  <path d="M275 260 C250 245 230 235 215 230" fill="none" stroke="#4ade80" stroke-width="2.5" stroke-linecap="round" opacity="0.6"/>
  <!-- Branch right -->
  <path d="M278 230 C300 215 320 210 335 210" fill="none" stroke="#4ade80" stroke-width="2" stroke-linecap="round" opacity="0.5"/>

  <!-- Leaves -->
  <ellipse cx="275" cy="180" rx="40" ry="18" fill="url(#leafGrad)" opacity="0.55" transform="rotate(-25 275 180)"/>
  <ellipse cx="285" cy="165" rx="35" ry="14" fill="#4ade80" opacity="0.4" transform="rotate(15 285 165)"/>
  <ellipse cx="270" cy="155" rx="30" ry="12" fill="url(#leafGrad)" opacity="0.6" transform="rotate(-10 270 155)"/>
  <ellipse cx="215" cy="230" rx="30" ry="13" fill="url(#leafGrad)" opacity="0.45" transform="rotate(-40 215 230)"/>
  <ellipse cx="335" cy="210" rx="30" ry="12" fill="url(#leafGrad)" opacity="0.4" transform="rotate(30 335 210)"/>
  <ellipse cx="280" cy="145" rx="25" ry="10" fill="#4ade80" opacity="0.35" transform="rotate(5 280 145)"/>

  <!-- Water drops falling -->
  <g filter="url(#glow)">
    <path d="M180 100 Q175 118 175 126 Q175 133 180 133 Q185 133 185 126 Q185 118 180 100Z" fill="#4ade80" opacity="0.7"/>
    <path d="M155 140 Q150 158 150 166 Q150 173 155 173 Q160 173 160 166 Q160 158 155 140Z" fill="#4ade80" opacity="0.4"/>
    <path d="M205 80 Q200 98 200 106 Q200 113 205 113 Q210 113 210 106 Q210 98 205 80Z" fill="#4ade80" opacity="0.5"/>
    <path d="M130 170 Q125 188 125 196 Q125 203 130 203 Q135 203 135 196 Q135 188 130 170Z" fill="#4ade80" opacity="0.3"/>
    <path d="M220 120 Q215 138 215 146 Q215 153 220 153 Q225 153 225 146 Q225 138 220 120Z" fill="#4ade80" opacity="0.35"/>
  </g>

  <!-- Phone mockup -->
  <g transform="translate(520, 80)">
    <!-- Phone body -->
    <rect x="0" y="0" width="170" height="310" rx="20" fill="#0a0a0a" stroke="#333" stroke-width="2"/>
    <rect x="8" y="8" width="154" height="294" rx="4" fill="#111"/>
    <!-- Notch -->
    <rect x="55" y="4" width="60" height="10" rx="5" fill="#1a1a1a"/>

    <!-- Status bar -->
    <rect x="18" y="22" width="40" height="5" rx="2.5" fill="#4ade80" opacity="0.25"/>
    <rect x="120" y="22" width="30" height="5" rx="2.5" fill="#333"/>

    <!-- Header -->
    <text x="18" y="52" font-family="sans-serif" font-size="11" font-weight="700" fill="#fff" opacity="0.9">Dropwise</text>
    <text x="18" y="66" font-family="sans-serif" font-size="7" fill="#4ade80" opacity="0.5">Today's Plan</text>

    <!-- Card 1 -->
    <rect x="16" y="78" width="138" height="52" rx="8" fill="#161616" stroke="#4ade80" stroke-width="0.5" opacity="0.7"/>
    <circle cx="36" cy="96" r="8" fill="#4ade80" opacity="0.2"/>
    <text x="36" y="99" font-family="sans-serif" font-size="8" fill="#4ade80" text-anchor="middle">H₂O</text>
    <text x="52" y="94" font-family="sans-serif" font-size="8" font-weight="600" fill="#fff" opacity="0.85">Water Now</text>
    <text x="52" y="106" font-family="sans-serif" font-size="6.5" fill="#888">Tomatoes — 2.5 gal</text>
    <rect x="120" y="87" width="28" height="16" rx="4" fill="#4ade80" opacity="0.15"/>
    <text x="134" y="98" font-family="sans-serif" font-size="7" fill="#4ade80" text-anchor="middle">Done</text>

    <!-- Card 2 -->
    <rect x="16" y="138" width="138" height="52" rx="8" fill="#161616" stroke="#4ade80" stroke-width="0.3" opacity="0.5"/>
    <circle cx="36" cy="156" r="8" fill="#4ade80" opacity="0.1"/>
    <text x="36" y="159" font-family="sans-serif" font-size="8" fill="#4ade80" text-anchor="middle">☀</text>
    <text x="52" y="154" font-family="sans-serif" font-size="8" font-weight="600" fill="#fff" opacity="0.7">Skip Today</text>
    <text x="52" y="166" font-family="sans-serif" font-size="6.5" fill="#888">Rain expected tonight</text>

    <!-- Card 3 -->
    <rect x="16" y="198" width="138" height="52" rx="8" fill="#161616" stroke="#4ade80" stroke-width="0.3" opacity="0.5"/>
    <circle cx="36" cy="216" r="8" fill="#4ade80" opacity="0.1"/>
    <text x="36" y="219" font-family="sans-serif" font-size="8" fill="#4ade80" text-anchor="middle">🌿</text>
    <text x="52" y="214" font-family="sans-serif" font-size="8" font-weight="600" fill="#fff" opacity="0.7">In 2 Days</text>
    <text x="52" y="226" font-family="sans-serif" font-size="6.5" fill="#888">Herbs — 1.0 gal</text>

    <!-- Bottom nav -->
    <rect x="16" y="260" width="138" height="32" rx="8" fill="#0f0f0f"/>
    <circle cx="42" cy="276" r="4" fill="#4ade80" opacity="0.3"/>
    <circle cx="85" cy="276" r="4" fill="#333"/>
    <circle cx="128" cy="276" r="4" fill="#333"/>
    <text x="42" y="286" font-family="sans-serif" font-size="4.5" fill="#4ade80" text-anchor="middle" opacity="0.5">Home</text>
    <text x="85" y="286" font-family="sans-serif" font-size="4.5" fill="#888" text-anchor="middle">Garden</text>
    <text x="128" y="286" font-family="sans-serif" font-size="4.5" fill="#888" text-anchor="middle">Stats</text>
  </g>

  <!-- Decorative circles -->
  <circle cx="700" cy="100" r="60" fill="none" stroke="#4ade80" stroke-width="0.5" opacity="0.15"/>
  <circle cx="700" cy="100" r="40" fill="none" stroke="#4ade80" stroke-width="0.5" opacity="0.1"/>
  <circle cx="100" cy="400" r="50" fill="none" stroke="#4ade80" stroke-width="0.5" opacity="0.1"/>

  <!-- Small floating particles -->
  <circle cx="450" cy="140" r="2" fill="#4ade80" opacity="0.4"/>
  <circle cx="480" cy="180" r="1.5" fill="#4ade80" opacity="0.3"/>
  <circle cx="460" cy="350" r="2" fill="#4ade80" opacity="0.2"/>
  <circle cx="500" cy="400" r="1.5" fill="#4ade80" opacity="0.3"/>
  <circle cx="140" cy="280" r="2" fill="#4ade80" opacity="0.25"/>
  <circle cx="160" cy="320" r="1.5" fill="#4ade80" opacity="0.2"/>
</svg>
