<svg xmlns="http://www.w3.org/2000/svg" viewBox="0 0 500 350">
  <defs>
    <linearGradient id="step1Grad" x1="0" y1="0" x2="0" y2="1">
      <stop offset="0%" stop-color="#161616"/>
      <stop offset="100%" stop-color="#111"/>
    </linearGradient>
  </defs>

  <rect width="500" height="350" fill="#0a0a0a"/>

  <!-- Grid -->
  <g opacity="0.06" fill="#4ade80">
    <circle cx="20" cy="20" r="1"/><circle cx="60" cy="20" r="1"/><circle cx="100" cy="20" r="1"/><circle cx="140" cy="20" r="1"/><circle cx="180" cy="20" r="1"/><circle cx="220" cy="20" r="1"/><circle cx="260" cy="20" r="1"/><circle cx="300" cy="20" r="1"/><circle cx="340" cy="20" r="1"/><circle cx="380" cy="20" r="1"/><circle cx="420" cy="20" r="1"/><circle cx="460" cy="20" r="1"/>
    <circle cx="20" cy="60" r="1"/><circle cx="60" cy="60" r="1"/><circle cx="100" cy="60" r="1"/><circle cx="140" cy="60" r="1"/><circle cx="180" cy="60" r="1"/><circle cx="220" cy="60" r="1"/><circle cx="260" cy="60" r="1"/><circle cx="300" cy="60" r="1"/><circle cx="340" cy="60" r="1"/><circle cx="380" cy="60" r="1"/><circle cx="420" cy="60" r="1"/><circle cx="460" cy="60" r="1"/>
    <circle cx="20" cy="100" r="1"/><circle cx="60" cy="100" r="1"/><circle cx="100" cy="100" r="1"/><circle cx="140" cy="100" r="1"/><circle cx="180" cy="100" r="1"/><circle cx="220" cy="100" r="1"/><circle cx="260" cy="100" r="1"/><circle cx="300" cy="100" r="1"/><circle cx="340" cy="100" r="1"/><circle cx="380" cy="100" r="1"/><circle cx="420" cy="100" r="1"/><circle cx="460" cy="100" r="1"/>
    <circle cx="20" cy="140" r="1"/><circle cx="60" cy="140" r="1"/><circle cx="100" cy="140" r="1"/><circle cx="140" cy="140" r="1"/><circle cx="180" cy="140" r="1"/><circle cx="220" cy="140" r="1"/><circle cx="260" cy="140" r="1"/><circle cx="300" cy="140" r="1"/><circle cx="340" cy="140" r="1"/><circle cx="380" cy="140" r="1"/><circle cx="420" cy="140" r="1"/><circle cx="460" cy="140" r="1"/>
    <circle cx="20" cy="180" r="1"/><circle cx="60" cy="180" r="1"/><circle cx="100" cy="180" r="1"/><circle cx="140" cy="180" r="1"/><circle cx="180" cy="180" r="1"/><circle cx="220" cy="180" r="1"/><circle cx="260" cy="180" r="1"/><circle cx="300" cy="180" r="1"/><circle cx="340" cy="180" r="1"/><circle cx="380" cy="180" r="1"/><circle cx="420" cy="180" r="1"/><circle cx="460" cy="180" r="1"/>
    <circle cx="20" cy="220" r="1"/><circle cx="60" cy="220" r="1"/><circle cx="100" cy="220" r="1"/><circle cx="140" cy="220" r="1"/><circle cx="180" cy="220" r="1"/><circle cx="220" cy="220" r="1"/><circle cx="260" cy="220" r="1"/><circle cx="300" cy="220" r="1"/><circle cx="340" cy="220" r="1"/><circle cx="380" cy="220" r="1"/><circle cx="420" cy="220" r="1"/><circle cx="460" cy="220" r="1"/>
    <circle cx="20" cy="260" r="1"/><circle cx="60" cy="260" r="1"/><circle cx="100" cy="260" r="1"/><circle cx="140" cy="260" r="1"/><circle cx="180" cy="260" r="1"/><circle cx="220" cy="260" r="1"/><circle cx="260" cy="260" r="1"/><circle cx="300" cy="260" r="1"/><circle cx="340" cy="260" r="1"/><circle cx="380" cy="260" r="1"/><circle cx="420" cy="260" r="1"/><circle cx="460" cy="260" r="1"/>
    <circle cx="20" cy="300" r="1"/><circle cx="60" cy="300" r="1"/><circle cx="100" cy="300" r="1"/><circle cx="140" cy="300" r="1"/><circle cx="180" cy="300" r="1"/><circle cx="220" cy="300" r="1"/><circle cx="260" cy="300" r="1"/><circle cx="300" cy="300" r="1"/><circle cx="340" cy="300" r="1"/><circle cx="380" cy="300" r="1"/><circle cx="420" cy="300" r="1"/><circle cx="460" cy="300" r="1"/>
  </g>

  <!-- Browser frame -->
  <rect x="50" y="30" width="400" height="290" rx="10" fill="url(#step1Grad)" stroke="#333" stroke-width="1.5"/>
  <!-- Title bar -->
  <rect x="50" y="30" width="400" height="32" rx="10" fill="#1a1a1a"/>
  <rect x="50" y="50" width="400" height="12" fill="#1a1a1a"/>
  <circle cx="72" cy="46" r="5" fill="#ff5f57"/>
  <circle cx="92" cy="46" r="5" fill="#febc2e"/>
  <circle cx="112" cy="46" r="5" fill="#28c840"/>
  <!-- URL bar -->
  <rect x="130" y="40" width="280" height="14" rx="7" fill="#111"/>
  <text x="270" y="50" font-family="monospace" font-size="7" fill="#666" text-anchor="middle">app.dropwise.dev/garden</text>

  <!-- Form content -->
  <text x="80" y="85" font-family="sans-serif" font-size="12" font-weight="700" fill="#fff" opacity="0.85">Tell us about your garden</text>

  <!-- Plant type field -->
  <text x="80" y="110" font-family="sans-serif" font-size="8" fill="#888">Plant Type</text>
  <rect x="80" y="116" width="170" height="24" rx="6" fill="#111" stroke="#4ade80" stroke-width="1" opacity="0.5"/>
  <text x="92" y="132" font-family="sans-serif" font-size="9" fill="#4ade80" opacity="0.6">Tomatoes, Basil, Peppers</text>

  <!-- Soil type field -->
  <text x="270" y="110" font-family="sans-serif" font-size="8" fill="#888">Soil Type</text>
  <rect x="270" y="116" width="150" height="24" rx="6" fill="#111" stroke="#333" stroke-width="1" opacity="0.4"/>
  <text x="282" y="132" font-family="sans-serif" font-size="9" fill="#888">Loamy</text>

  <!-- Garden size field -->
  <text x="80" y="162" font-family="sans-serif" font-size="8" fill="#888">Garden Size</text>
  <rect x="80" y="168" width="170" height="24" rx="6" fill="#111" stroke="#333" stroke-width="1" opacity="0.4"/>
  <text x="92" y="184" font-family="sans-serif" font-size="9" fill="#888">200 sq ft</text>

  <!-- Location field -->
  <text x="270" y="162" font-family="sans-serif" font-size="8" fill="#888">Location</text>
  <rect x="270" y="168" width="150" height="24" rx="6" fill="#111" stroke="#4ade80" stroke-width="1" opacity="0.5"/>
  <text x="282" y="184" font-family="sans-serif" font-size="9" fill="#4ade80" opacity="0.6">Austin, TX</text>

  <!-- Sun exposure -->
  <text x="80" y="214" font-family="sans-serif" font-size="8" fill="#888">Sun Exposure</text>
  <rect x="80" y="220" width="80" height="24" rx="6" fill="#4ade80" opacity="0.15" stroke="#4ade80" stroke-width="1"/>
  <text x="120" y="236" font-family="sans-serif" font-size="9" fill="#4ade80" text-anchor="middle">Full Sun</text>
  <rect x="170" y="220" width="80" height="24" rx="6" fill="#111" stroke="#333" stroke-width="1" opacity="0.4"/>
  <text x="210" y="236" font-family="sans-serif" font-size="9" fill="#888" text-anchor="middle">Partial</text>

  <!-- Next button -->
  <rect x="330" y="250" width="90" height="28" rx="8" fill="#4ade80" opacity="0.9"/>
  <text x="375" y="268" font-family="sans-serif" font-size="10" font-weight="600" fill="#0a0a0a" text-anchor="middle">Next →</text>
</svg>
