<svg xmlns="http://www.w3.org/2000/svg" viewBox="0 0 500 350">
  <rect width="500" height="350" fill="#0a0a0a"/>

  <!-- Grid dots -->
  <g opacity="0.06" fill="#4ade80">
    <circle cx="20" cy="20" r="1"/><circle cx="60" cy="20" r="1"/><circle cx="100" cy="20" r="1"/><circle cx="140" cy="20" r="1"/><circle cx="180" cy="20" r="1"/><circle cx="220" cy="20" r="1"/><circle cx="260" cy="20" r="1"/><circle cx="300" cy="20" r="1"/><circle cx="340" cy="20" r="1"/><circle cx="380" cy="20" r="1"/><circle cx="420" cy="20" r="1"/><circle cx="460" cy="20" r="1"/>
    <circle cx="20" cy="60" r="1"/><circle cx="60" cy="60" r="1"/><circle cx="100" cy="60" r="1"/><circle cx="140" cy="60" r="1"/><circle cx="180" cy="60" r="1"/><circle cx="220" cy="60" r="1"/><circle cx="260" cy="60" r="1"/><circle cx="300" cy="60" r="1"/><circle cx="340" cy="60" r="1"/><circle cx="380" cy="60" r="1"/><circle cx="420" cy="60" r="1"/><circle cx="460" cy="60" r="1"/>
    <circle cx="20" cy="100" r="1"/><circle cx="60" cy="100" r="1"/><circle cx="100" cy="100" r="1"/><circle cx="140" cy="100" r="1"/><circle cx="180" cy="100" r="1"/><circle cx="220" cy="100" r="1"/><circle cx="260" cy="100" r="1"/><circle cx="300" cy="100" r="1"/><circle cx="340" cy="100" r="1"/><circle cx="380" cy="100" r="1"/><circle cx="420" cy="100" r="1"/><circle cx="460" cy="100" r="1"/>
    <circle cx="20" cy="140" r="1"/><circle cx="60" cy="140" r="1"/><circle cx="100" cy="140" r="1"/><circle cx="140" cy="140" r="1"/><circle cx="180" cy="140" r="1"/><circle cx="220" cy="140" r="1"/><circle cx="260" cy="140" r="1"/><circle cx="300" cy="140" r="1"/><circle cx="340" cy="140" r="1"/><circle cx="380" cy="140" r="1"/><circle cx="420" cy="140" r="1"/><circle cx="460" cy="140" r="1"/>
    <circle cx="20" cy="180" r="1"/><circle cx="60" cy="180" r="1"/><circle cx="100" cy="180" r="1"/><circle cx="140" cy="180" r="1"/><circle cx="180" cy="180" r="1"/><circle cx="220" cy="180" r="1"/><circle cx="260" cy="180" r="1"/><circle cx="300" cy="180" r="1"/><circle cx="340" cy="180" r="1"/><circle cx="380" cy="180" r="1"/><circle cx="420" cy="180" r="1"/><circle cx="460" cy="180" r="1"/>
    <circle cx="20" cy="220" r="1"/><circle cx="60" cy="220" r="1"/><circle cx="100" cy="220" r="1"/><circle cx="140" cy="220" r="1"/><circle cx="180" cy="220" r="1"/><circle cx="220" cy="220" r="1"/><circle cx="260" cy="220" r="1"/><circle cx="300" cy="220" r="1"/><circle cx="340" cy="220" r="1"/><circle cx="380" cy="220" r="1"/><circle cx="420" cy="220" r="1"/><circle cx="460" cy="220" r="1"/>
    <circle cx="20" cy="260" r="1"/><circle cx="60" cy="260" r="1"/><circle cx="100" cy="260" r="1"/><circle cx="140" cy="260" r="1"/><circle cx="180" cy="260" r="1"/><circle cx="220" cy="260" r="1"/><circle cx="260" cy="260" r="1"/><circle cx="300" cy="260" r="1"/><circle cx="340" cy="260" r="1"/><circle cx="380" cy="260" r="1"/><circle cx="420" cy="260" r="1"/><circle cx="460" cy="260" r="1"/>
    <circle cx="20" cy="300" r="1"/><circle cx="60" cy="300" r="1"/><circle cx="100" cy="300" r="1"/><circle cx="140" cy="300" r="1"/><circle cx="180" cy="300" r="1"/><circle cx="220" cy="300" r="1"/><circle cx="260" cy="300" r="1"/><circle cx="300" cy="300" r="1"/><circle cx="340" cy="300" r="1"/><circle cx="380" cy="300" r="1"/><circle cx="420" cy="300" r="1"/><circle cx="460" cy="300" r="1"/>
  </g>

  <!-- Browser frame -->
  <rect x="50" y="30" width="400" height="290" rx="10" fill="#111" stroke="#333" stroke-width="1.5"/>
  <rect x="50" y="30" width="400" height="32" rx="10" fill="#1a1a1a"/>
  <rect x="50" y="50" width="400" height="12" fill="#1a1a1a"/>
  <circle cx="72" cy="46" r="5" fill="#ff5f57"/>
  <circle cx="92" cy="46" r="5" fill="#febc2e"/>
  <circle cx="112" cy="46" r="5" fill="#28c840"/>
  <rect x="130" y="40" width="280" height="14" rx="7" fill="#111"/>
  <text x="270" y="50" font-family="monospace" font-size="7" fill="#666" text-anchor="middle">app.dropwise.dev/schedule</text>

  <!-- Header -->
  <text x="80" y="85" font-family="sans-serif" font-size="12" font-weight="700" fill="#fff" opacity="0.85">This Week's Watering Schedule</text>
  <text x="80" y="100" font-family="sans-serif" font-size="8" fill="#888">Based on weather forecast for Austin, TX</text>

  <!-- Day columns -->
  <!-- Mon -->
  <rect x="80" y="115" width="48" height="100" rx="6" fill="#161616" stroke="#4ade80" stroke-width="1" opacity="0.6"/>
  <text x="104" y="132" font-family="sans-serif" font-size="9" font-weight="600" fill="#4ade80" text-anchor="middle">Mon</text>
  <text x="104" y="146" font-family="sans-serif" font-size="7" fill="#888" text-anchor="middle">7 AM</text>
  <rect x="88" y="155" width="32" height="8" rx="3" fill="#4ade80" opacity="0.2"/>
  <text x="104" y="162" font-family="sans-serif" font-size="6" fill="#4ade80" text-anchor="middle">2.5 gal</text>
  <rect x="88" y="170" width="32" height="8" rx="3" fill="#4ade80" opacity="0.15"/>
  <text x="104" y="177" font-family="sans-serif" font-size="6" fill="#4ade80" text-anchor="middle">1.0 gal</text>

  <!-- Tue -->
  <rect x="138" y="115" width="48" height="100" rx="6" fill="#161616" stroke="#333" stroke-width="0.5" opacity="0.4"/>
  <text x="162" y="132" font-family="sans-serif" font-size="9" font-weight="600" fill="#888" text-anchor="middle">Tue</text>
  <text x="162" y="146" font-family="sans-serif" font-size="7" fill="#888" text-anchor="middle">—</text>
  <text x="162" y="170" font-family="sans-serif" font-size="7" fill="#888" text-anchor="middle">Rain</text>

  <!-- Wed -->
  <rect x="196" y="115" width="48" height="100" rx="6" fill="#161616" stroke="#333" stroke-width="0.5" opacity="0.4"/>
  <text x="220" y="132" font-family="sans-serif" font-size="9" font-weight="600" fill="#888" text-anchor="middle">Wed</text>
  <text x="220" y="146" font-family="sans-serif" font-size="7" fill="#888" text-anchor="middle">6:30 AM</text>
  <rect x="204" y="155" width="32" height="8" rx="3" fill="#4ade80" opacity="0.1"/>
  <text x="220" y="162" font-family="sans-serif" font-size="6" fill="#4ade80" text-anchor="middle">2.0 gal</text>

  <!-- Thu -->
  <rect x="254" y="115" width="48" height="100" rx="6" fill="#161616" stroke="#333" stroke-width="0.5" opacity="0.4"/>
  <text x="278" y="132" font-family="sans-serif" font-size="9" font-weight="600" fill="#888" text-anchor="middle">Thu</text>
  <text x="278" y="146" font-family="sans-serif" font-size="7" fill="#888" text-anchor="middle">—</text>
  <text x="278" y="170" font-family="sans-serif" font-size="7" fill="#888" text-anchor="middle">Skip</text>

  <!-- Fri -->
  <rect x="312" y="115" width="48" height="100" rx="6" fill="#161616" stroke="#4ade80" stroke-width="0.8" opacity="0.5"/>
  <text x="336" y="132" font-family="sans-serif" font-size="9" font-weight="600" fill="#4ade80" text-anchor="middle">Fri</text>
  <text x="336" y="146" font-family="sans-serif" font-size="7" fill="#888" text-anchor="middle">7 AM</text>
  <rect x="320" y="155" width="32" height="8" rx="3" fill="#4ade80" opacity="0.2"/>
  <text x="336" y="162" font-family="sans-serif" font-size="6" fill="#4ade80" text-anchor="middle">2.5 gal</text>

  <!-- Sat -->
  <rect x="370" y="115" width="48" height="100" rx="6" fill="#161616" stroke="#333" stroke-width="0.5" opacity="0.4"/>
  <text x="394" y="132" font-family="sans-serif" font-size="9" font-weight="600" fill="#888" text-anchor="middle">Sat</text>
  <text x="394" y="146" font-family="sans-serif" font-size="7" fill="#888" text-anchor="middle">—</text>
  <text x="394" y="170" font-family="sans-serif" font-size="7" fill="#888" text-anchor="middle">Skip</text>

  <!-- Weather note -->
  <rect x="80" y="230" width="340" height="30" rx="6" fill="#161616" stroke="#4ade80" stroke-width="0.5" opacity="0.4"/>
  <text x="96" y="249" font-family="sans-serif" font-size="8" fill="#4ade80" opacity="0.6">☁ Rain expected Tue — Dropwise will skip and adjust automatically</text>
</svg>
